<?xml version="1.0"?>
<svg xmlns="http://www.w3.org/2000/svg" xmlns:xlink="http://www.w3.org/1999/xlink" xmlns:svgjs="http://svgjs.com/svgjs" version="1.1" width="512" height="512" x="0" y="0" viewBox="0 0 256 256" style="enable-background:new 0 0 512 512" xml:space="preserve" class=""><g><g xmlns="http://www.w3.org/2000/svg"><path d="m251.333 42.886v197.25c0 2.761-2.239 5-5 5h-236.666c-2.761 0-5-2.239-5-5v-197.25z" fill="#6639a6" data-original="#72c1e8" style="" class=""/><path d="m251.333 15.865v27.021h-246.666v-27.021c0-2.761 2.239-5 5-5h236.667c2.761 0 4.999 2.238 4.999 5z" fill="#afafaf" data-original="#afafaf" style="" class=""/><circle cx="178.576" cy="26.875" fill="#fc5d3d" r="6.132" data-original="#fc5d3d" style="" class=""/><circle cx="202.222" cy="26.875" fill="#163172" r="6.132" data-original="#f0c020" style="" class=""/><circle cx="225.868" cy="26.875" fill="#13bf6d" r="6.132" data-original="#13bf6d" style="" class=""/><path d="m239 235.167h-204.632c-1.381 0-2.5-1.119-2.5-2.5s1.119-2.5 2.5-2.5h202.132v-172.869c0-1.381 1.119-2.5 2.5-2.5s2.5 1.119 2.5 2.5v175.368c0 1.381-1.119 2.501-2.5 2.501zm-214.632 0h-6.744c-1.381 0-2.5-1.119-2.5-2.5s1.119-2.5 2.5-2.5h6.744c1.381 0 2.5 1.119 2.5 2.5s-1.119 2.5-2.5 2.5z" fill="#c5e5ff" data-original="#c5e5ff" style="" class=""/><path d="m128 99.291c-25.818 0-46.737 20.922-46.737 46.737 0 25.814 20.923 46.737 46.737 46.737 9.739 0 18.804-2.989 26.303-8.098 12.493-8.525 20.434-22.762 20.434-38.64 0-25.813-20.923-46.736-46.737-46.736z" fill="#163172" data-original="#f0c020" style="" class=""/><path d="m164.284 148.528c-1.381 0-2.5-1.119-2.5-2.5 0-18.629-15.155-33.785-33.784-33.785-1.381 0-2.5-1.119-2.5-2.5s1.119-2.5 2.5-2.5c21.386 0 38.784 17.399 38.784 38.785 0 1.381-1.119 2.5-2.5 2.5z" fill="#f9e5af" data-original="#f9e5af" style=""/><path d="m128 184.813c-1.424 0-2.858-.078-4.263-.233-1.373-.151-2.363-1.386-2.212-2.758.151-1.373 1.384-2.367 2.758-2.212 1.225.134 2.475.203 3.717.203 1.381 0 2.5 1.119 2.5 2.5s-1.119 2.5-2.5 2.5zm-14.596-2.851c-14.694-5.989-24.189-20.094-24.189-35.934 0-1.381 1.119-2.5 2.5-2.5s2.5 1.119 2.5 2.5c0 13.798 8.273 26.086 21.076 31.304 1.279.521 1.893 1.98 1.372 3.258-.523 1.283-1.985 1.892-3.259 1.372z" fill="#f9e5af" data-original="#f9e5af" style=""/><path d="m134.629 152.655-13.258-13.257 25.363-12.105z" fill="#fc5d3d" data-original="#fc5d3d" style="" class=""/><path d="m121.371 139.398 13.258 13.257-25.363 12.105z" fill="#ffffff" data-original="#ffffff" style="" class=""/><path d="m178.58 18.24c-4.761.01-8.641 3.88-8.641 8.64 0 4.75 3.88 8.63 8.641 8.63 4.75 0 8.63-3.88 8.63-8.63 0-4.76-3.88-8.63-8.63-8.64zm0 12.27c-2-.01-3.63-1.64-3.641-3.63.011-2 1.641-3.63 3.641-3.64 1.989.01 3.62 1.64 3.63 3.64-.01 1.99-1.641 3.62-3.63 3.63z" fill="#000000" data-original="#000000" style="" class=""/><path d="m210.85 26.88c0-4.76-3.87-8.64-8.63-8.64s-8.63 3.88-8.63 8.64c0 4.75 3.87 8.63 8.63 8.63s8.63-3.88 8.63-8.63zm-8.63 3.63c-2-.01-3.63-1.64-3.63-3.63 0-2 1.63-3.63 3.63-3.64 2 .01 3.63 1.64 3.63 3.64 0 1.99-1.63 3.62-3.63 3.63z" fill="#000000" data-original="#000000" style="" class=""/><path d="m225.87 35.51c4.75 0 8.63-3.87 8.63-8.63s-3.87-8.64-8.63-8.64c-4.761 0-8.63 3.88-8.641 8.64.011 4.76 3.88 8.63 8.641 8.63zm0-12.27c2 .01 3.63 1.64 3.63 3.64 0 1.99-1.63 3.62-3.63 3.63-2-.01-3.63-1.64-3.641-3.63.011-2 1.641-3.63 3.641-3.64z" fill="#000000" data-original="#000000" style="" class=""/><path d="m153.045 24.375h-135.421c-1.381 0-2.5 1.119-2.5 2.5s1.119 2.5 2.5 2.5h135.421c1.381 0 2.5-1.119 2.5-2.5s-1.119-2.5-2.5-2.5z" fill="#000000" data-original="#000000" style="" class=""/><path d="m2.167 240.135c0 4.136 3.364 7.5 7.5 7.5h236.667c4.136 0 7.5-3.364 7.5-7.5v-224.27c0-4.136-3.364-7.5-7.5-7.5h-236.667c-4.136 0-7.5 3.364-7.5 7.5zm5-194.755h194.163c1.38 0 2.5-1.12 2.5-2.49 0-1.38-1.12-2.5-2.5-2.5h-194.163v-24.525c0-1.378 1.122-2.5 2.5-2.5h236.667c1.379 0 2.5 1.122 2.5 2.5v24.525h-27.504c-1.38 0-2.5 1.12-2.5 2.5 0 1.37 1.12 2.49 2.5 2.49h27.503v194.755c0 1.378-1.121 2.5-2.5 2.5h-236.666c-1.378 0-2.5-1.122-2.5-2.5z" fill="#000000" data-original="#000000" style="" class=""/><path d="m208.83 42.89c0 1.37 1.12 2.49 2.5 2.49s2.5-1.12 2.5-2.49c0-1.38-1.12-2.5-2.5-2.5s-2.5 1.12-2.5 2.5z" fill="#000000" data-original="#000000" style="" class=""/><path d="m108.264 129.786c.976.977 2.56.977 3.535 0l4.442-4.442 4.627 4.626c.976.977 2.56.977 3.535 0 .977-.976.977-2.559 0-3.535l-6.395-6.395c-.976-.977-2.56-.977-3.535 0l-4.442 4.442-19.825-19.825c-.976-.977-2.56-.977-3.535 0-.977.976-.977 2.559 0 3.535z" fill="#000000" data-original="#000000" style="" class=""/><path d="m151.479 166.012c-.938-.938-2.598-.938-3.535 0l-4.441 4.442-6.613-6.613c-.977-.976-2.559-.976-3.535 0-.977.976-.977 2.559 0 3.535l8.381 8.38c.938.938 2.598.938 3.535 0l4.441-4.442 16.263 16.262c.977.977 2.559.977 3.535 0 .977-.976.977-2.559 0-3.535z" fill="#000000" data-original="#000000" style="" class=""/><path d="m29.911 148.124h28.299v25.208c0 1.381 1.119 2.5 2.5 2.5s2.5-1.119 2.5-2.5v-25.208h5.502c1.381 0 2.5-1.119 2.5-2.5s-1.119-2.5-2.5-2.5h-5.502v-25.359c0-1.381-1.119-2.5-2.5-2.5s-2.5 1.119-2.5 2.5v25.359h-24.53l10.235-24.235c.537-1.272-.059-2.739-1.331-3.276-1.271-.535-2.738.059-3.276 1.331l-11.701 27.708c-.695 1.647.518 3.472 2.304 3.472z" fill="#000000" data-original="#000000" style="" class=""/><path d="m187.288 148.124h28.299v25.208c0 1.381 1.119 2.5 2.5 2.5s2.5-1.119 2.5-2.5v-25.208h5.503c1.381 0 2.5-1.119 2.5-2.5s-1.119-2.5-2.5-2.5h-5.503v-25.359c0-1.381-1.119-2.5-2.5-2.5s-2.5 1.119-2.5 2.5v25.359h-24.529l10.234-24.235c.537-1.272-.059-2.739-1.33-3.276-1.271-.536-2.739.059-3.275 1.331l-11.701 27.708c-.697 1.647.516 3.472 2.302 3.472z" fill="#000000" data-original="#000000" style="" class=""/><path d="m136.885 153.732 12.104-25.362c1.012-2.116-1.208-4.347-3.333-3.333l-25.362 12.105c-.47.224-.927.65-1.18 1.18l-12.105 25.362c-1.011 2.119 1.212 4.346 3.333 3.333l25.363-12.105c.417-.199.934-.665 1.18-1.18zm-22.32 5.729 7.539-15.794 8.256 8.256zm11.075-19.33 15.794-7.539-7.538 15.794z" fill="#000000" data-original="#000000" style="" class=""/><path d="m103.105 109.454c7.349-5.013 15.957-7.663 24.895-7.663 24.393 0 44.237 19.845 44.237 44.237 0 8.955-2.66 17.577-7.693 24.936-.779 1.14-.487 2.696.652 3.475 1.138.779 2.695.487 3.475-.652 5.604-8.194 8.566-17.792 8.566-27.759 0-26.311-20.745-47.867-46.737-49.173v-7.021h6.875c1.381 0 2.5-1.119 2.5-2.5s-1.119-2.5-2.5-2.5h-18.75c-1.381 0-2.5 1.119-2.5 2.5s1.119 2.5 2.5 2.5h6.875v7.028c-9.047.452-17.717 3.349-25.212 8.462-1.141.778-1.435 2.333-.657 3.474.778 1.139 2.333 1.433 3.474.656z" fill="#000000" data-original="#000000" style="" class=""/><path d="m128 195.265c9.935 0 19.518-2.95 27.711-8.531 1.142-.777 1.437-2.333.659-3.474-.779-1.143-2.334-1.435-3.474-.659-7.36 5.014-15.97 7.664-24.896 7.664-24.393 0-44.237-19.845-44.237-44.237 0-8.951 2.661-17.578 7.695-24.947.779-1.14.486-2.696-.654-3.475-1.141-.778-2.695-.485-3.475.654-5.604 8.204-8.566 17.806-8.566 27.768 0 27.149 22.088 49.237 49.237 49.237z" fill="#000000" data-original="#000000" style="" class=""/></g></g></svg>
